<svg xmlns="http://www.w3.org/2000/svg" width="120" height="120" viewBox="0 0 120 120" fill="none">
  <defs>
    <linearGradient id="bg" x1="0%" y1="0%" x2="100%" y2="100%">
      <stop offset="0%" style="stop-color:#FF6B6B;stop-opacity:1" />
      <stop offset="100%" style="stop-color:#FF8E53;stop-opacity:1" />
    </linearGradient>
  </defs>
  
  <!-- Background circle -->
  <circle cx="60" cy="60" r="60" fill="url(#bg)"/>
  
  <!-- Face -->
  <circle cx="60" cy="55" r="18" fill="#FFF"/>
  
  <!-- Nose -->
  <circle cx="60" cy="58" r="2" fill="#333"/>
  
  <!-- Mouth -->
  <path d="M 55 65 Q 60 68 65 65" stroke="#333" stroke-width="1.5" fill="none" stroke-linecap="round"/>
  
  <!-- Eyes -->
  <circle cx="52" cy="52" r="2.5" fill="#333"/>
  <circle cx="68" cy="52" r="2.5" fill="#333"/>
  
  <!-- Eyebrows -->
  <path d="M 48 48 Q 52 46 56 48" stroke="#333" stroke-width="1.5" fill="none" stroke-linecap="round"/>
  <path d="M 64 48 Q 68 46 72 48" stroke="#333" stroke-width="1.5" fill="none" stroke-linecap="round"/>
  
  <!-- Hair -->
  <path d="M 35 40 Q 60 25 85 40 Q 80 50 75 55 Q 70 60 65 62 Q 60 65 55 62 Q 50 60 45 55 Q 40 50 35 40 Z" fill="#333"/>
  
  <!-- Accessories (glasses) -->
  <circle cx="52" cy="52" r="6" stroke="#333" stroke-width="1.5" fill="none"/>
  <circle cx="68" cy="52" r="6" stroke="#333" stroke-width="1.5" fill="none"/>
  <path d="M 58 52 L 62 52" stroke="#333" stroke-width="1.5" stroke-linecap="round"/>
</svg>
